# xmcd
#
# Track frame offsets:
#	150
#	17420
#	42225
#	68655
#	94500
#	117375
#	146925
#	171675
#	204525
#	227355
#
# Disc length: 3431 seconds
#
# Revision: 1
# Processed by: cddbd v1.5.1PL2 Copyright (c) Steve Scherf et al.
# Submitted via: EasyCDDAExtractor 9.0.0.1
#
DISCID=860d650a
DTITLE=Blue Oyster Cult - The Edge Palo Alto 04-02-98 Disc 1
DYEAR=1998
DGENRE=Hard Rock
TTITLE0=Intro
TTITLE1=Before The Kiss
TTITLE2=Cities On Flame
TTITLE3=ETI
TTITLE4=Harvest Moon
TTITLE5=Buck's Boogie
TTITLE6=Od'd On Life Itself
TTITLE7=The Vigil
TTITLE8=Live For Me
TTITLE9=Flaming Telepaths
EXTD=
EXTT0=
EXTT1=
EXTT2=
EXTT3=
EXTT4=
EXTT5=
EXTT6=
EXTT7=
EXTT8=
EXTT9=
PLAYORDER=
